2000 0 4 0           
34 Abaqus, Inc. - Abaqus 6.13-3 - 230 12 ACIS 23.0 NT 24 Mon May 12 13:36:50 2014 
1 9.9999999999999995e-007 1e-010 
-0 body $4 -1 -1 $-1 $5 $-1 $6 T -2.5 0 0 0.89351391792297408 1.125 0.10000000000000001 #
-1 body $7 -1 -1 $-1 $8 $-1 $9 T -2.5 0 0 0.89351391792297397 1.1661766529895565 0.10000000000000001 #
-2 body $10 -1 -1 $-1 $11 $-1 $12 T -3.9500000000000002 0 0 -0.70000641345975412 0.95539026345169842 0.10000000000000001 #
-3 body $13 -1 -1 $-1 $14 $-1 $15 T -0.68553634166717492 0 0 -0.067038195133208967 0.56741106510162398 0.10000000000000001 #
-4 string_attrib-name_attrib-gen-attrib $-1 -1 $-1 $-1 $0 2 1 1 1 1 1 1 1 1 1 1 1 1 1 0 1 1 1 @18 HKS_ATTRIB_BODY_ID @1 1 #
-5 lump $16 -1 -1 $-1 $-1 $17 $0 T -2.5 0 0 0.89351391792297408 1.125 0.10000000000000001 #
-6 transform $-1 -1 1 0 0 0 1 0 0 0 1 0 0 0 1 no_rotate no_reflect no_shear #
-7 string_attrib-name_attrib-gen-attrib $-1 -1 $-1 $-1 $1 2 1 1 1 1 1 1 1 1 1 1 1 1 1 0 1 1 1 @18 HKS_ATTRIB_BODY_ID @1 1 #
-8 lump $18 -1 -1 $-1 $-1 $19 $1 T -2.5 0 0 0.89351391792297397 1.1661766529895565 0.10000000000000001 #
-9 transform $-1 -1 1 0 0 0 1 0 0 0 1 0 0 0 1 no_rotate no_reflect no_shear #
-10 string_attrib-name_attrib-gen-attrib $-1 -1 $-1 $-1 $2 2 1 1 1 1 1 1 1 1 1 1 1 1 1 0 1 1 1 @18 HKS_ATTRIB_BODY_ID @1 1 #
-11 lump $20 -1 -1 $-1 $-1 $21 $2 T -3.9500000000000002 0 0 -0.70000641345975412 0.95539026345169842 0.10000000000000001 #
-12 transform $-1 -1 1 0 0 0 1 0 0 0 1 0 0 0 1 no_rotate no_reflect no_shear #
-13 string_attrib-name_attrib-gen-attrib $-1 -1 $-1 $-1 $3 2 1 1 1 1 1 1 1 1 1 1 1 1 1 0 1 1 1 @18 HKS_ATTRIB_BODY_ID @1 1 #
-14 lump $22 -1 -1 $-1 $-1 $23 $3 T -0.68553634166717492 0 0 -0.067038195133208967 0.56741106510162398 0.10000000000000001 #
-15 transform $-1 -1 1 0 0 0 1 0 0 0 1 0 0 0 1 no_rotate no_reflect no_shear #
-16 cell_ptr-ct-attrib $-1 -1 $-1 $-1 $5 1 1 1 1 1 1 1 1 1 1 1 1 0 1 0 1 1 1 $24 $-1 auto #
-17 shell $-1 -1 -1 $-1 $-1 $-1 $25 $-1 $5 T -2.5 0 0 0.89351391792297408 1.125 0.10000000000000001 #
-18 cell_ptr-ct-attrib $-1 -1 $-1 $-1 $8 1 1 1 1 1 1 1 1 1 1 1 1 0 1 0 1 1 1 $26 $-1 auto #
-19 shell $-1 -1 -1 $-1 $-1 $-1 $27 $-1 $8 T -2.5 0 0 0.89351391792297397 1.1661766529895565 0.10000000000000001 #
-20 cell_ptr-ct-attrib $-1 -1 $-1 $-1 $11 1 1 1 1 1 1 1 1 1 1 1 1 0 1 0 1 1 1 $28 $-1 auto #
-21 shell $-1 -1 -1 $-1 $-1 $-1 $29 $-1 $11 T -3.9500000000000002 0 0 -0.70000641345975412 0.95539026345169842 0.10000000000000001 #
-22 cell_ptr-ct-attrib $-1 -1 $-1 $-1 $14 1 1 1 1 1 1 1 1 1 1 1 1 0 1 0 1 1 1 $30 $-1 auto #
-23 shell $-1 -1 -1 $-1 $-1 $-1 $31 $-1 $14 T -0.68553634166717492 0 0 -0.067038195133208967 0.56741106510162398 0.10000000000000001 #
-24 cell3d-cell $-1 -1 $-1 $5 $-1 1 $32 #
-25 face $33 -1 -1 $-1 $34 $35 $17 $-1 $36 forward single F F #
-26 cell3d-cell $-1 -1 $-1 $8 $-1 1 $37 #
-27 face $38 -1 -1 $-1 $39 $40 $19 $-1 $41 forward single F F #
-28 cell3d-cell $-1 -1 $-1 $11 $-1 1 $42 #
-29 face $43 -1 -1 $-1 $44 $45 $21 $-1 $46 forward single F F #
-30 cell3d-cell $-1 -1 $-1 $14 $-1 1 $47 #
-31 face $48 -1 -1 $-1 $49 $50 $23 $-1 $51 forward single F F #
-32 cshell $-1 -1 $-1 $52 $24 #
-33 cface_ptr-ct-attrib $-1 -1 $-1 $-1 $25 1 1 1 1 1 1 1 1 1 1 1 1 0 1 0 1 1 1 $-1 $53 #
-34 face $54 -1 -1 $-1 $55 $56 $17 $-1 $57 forward single F F #
-35 loop $-1 -1 -1 $-1 $-1 $58 $25 T 0.89351391792297397 0 0 0.89351391792297397 1.125 0.10000000000000001 periphery $36 F #
-36 plane-surface $-1 -1 -1 $-1 0.89351391792297397 0.5625 0 1 0 0 0 1 0 forward_v I I I I #
-37 cshell $-1 -1 $-1 $59 $26 #
-38 cface_ptr-ct-attrib $-1 -1 $-1 $-1 $27 1 1 1 1 1 1 1 1 1 1 1 1 0 1 0 1 1 1 $-1 $60 #
-39 face $61 -1 -1 $-1 $62 $63 $19 $-1 $64 forward single F F #
-40 loop $-1 -1 -1 $-1 $-1 $65 $27 T -2.5 0.34501629433549302 0 0.75 1.1661766529895565 0.10000000000000001 periphery $41 F #
-41 spline-surface $-1 -1 -1 $-1 forward { sumsur 
	intcurve reversed { exactcur full nubs 3 open 6 
	0 3 0.75 1 1.375 1 2.4430004681646915 1 3.1718694550203539 1 
	3.4218694550203539 3 
	-2.5 1.125 0 
	-2.2503125289624117 1.1215177332800437 0 
	-1.7925521653934995 1.1151335776267903 0 
	-0.97363762559635081 1.1661766529895565 0 
	-0.19187749278150193 0.88171925873837265 0 
	0.33149908069514927 0.34501629433549302 0 
	0.6648605498671426 0.36890014192212078 0 
	0.75 0.375 0 
	0 
	null_surface 
	null_surface 
	nullbs 
	nullbs 
	-1 
	-1 
	I I 
	0 
	0 
	4 0.75 1.375 2.4430004681646915 3.1718694550203539 
	
	-1 
	none F F 1 F 0 } I I 
	straight -2.5 1 0 0 0 1 I I 
	-2.5 1 0 
	none F -3.4218694550203539 F -0 F 0 F 0.10000000000000001 OPEN OPEN NON_SINGULAR NON_SINGULAR 
	0 
	0 
	4 -3.1718694550203539 -2.4430004681646915 -1.375 -0.75 
	0 
	0 
	0 
	} I I I I #
-42 cshell $-1 -1 $-1 $66 $28 #
-43 cface_ptr-ct-attrib $-1 -1 $-1 $-1 $29 1 1 1 1 1 1 1 1 1 1 1 1 0 1 0 1 1 1 $-1 $67 #
-44 face $68 -1 -1 $-1 $69 $70 $21 $-1 $71 forward single F F #
-45 loop $-1 -1 -1 $-1 $-1 $72 $29 T -3.9500000000000002 0 0 -0.7000064134597781 0 0.10000000000000001 periphery $46 F #
-46 plane-surface $-1 -1 -1 $-1 -2.4168975770473482 0 0 0 -1 0 1 -0 -0 forward_v I I I I #
-47 cshell $-1 -1 $-1 $73 $30 #
-48 cface_ptr-ct-attrib $-1 -1 $-1 $-1 $31 1 1 1 1 1 1 1 1 1 1 1 1 0 1 0 1 1 1 $-1 $74 #
-49 face $75 -1 -1 $-1 $76 $77 $23 $-1 $78 forward single F F #
-50 loop $-1 -1 -1 $-1 $-1 $79 $31 T -0.68553634166717492 0 0 -0.68553634166717492 0.56741106510162398 0.10000000000000001 periphery $51 F #
-51 plane-surface $-1 -1 -1 $-1 -0.68553634166717492 0.28370553255081199 0 -1 0 0 -0 -1 -0 forward_v I I I I #
-52 cface $-1 -1 $80 $32 $55 0 #
-53 cface $-1 -1 $-1 $32 $25 0 #
-54 cface_ptr-ct-attrib $-1 -1 $-1 $-1 $34 1 1 1 1 1 1 1 1 1 1 1 1 0 1 0 1 1 1 $-1 $81 #
-55 face $82 -1 -1 $-1 $83 $84 $17 $-1 $85 forward single F F #
-56 loop $-1 -1 -1 $-1 $-1 $86 $34 T -2.5 0 0 0.89351391792297408 0 0.10000000000000001 periphery $57 F #
-57 plane-surface $-1 -1 -1 $-1 -0.80324304103851296 0 0 0 -1 0 1 0 0 forward_v I I I I #
-58 coedge $-1 -1 -1 $-1 $87 $88 $89 $90 forward $35 $-1 #
-59 cface $-1 -1 $91 $37 $39 0 #
-60 cface $-1 -1 $92 $37 $27 0 #
-61 cface_ptr-ct-attrib $-1 -1 $-1 $-1 $39 1 1 1 1 1 1 1 1 1 1 1 1 0 1 0 1 1 1 $-1 $59 #
-62 face $93 -1 -1 $-1 $94 $95 $19 $-1 $96 forward single F F #
-63 loop $-1 -1 -1 $-1 $-1 $97 $39 T 0.75 0.375 0 0.89351391792297397 0.375 0.10000000000000001 periphery $64 F #
-64 plane-surface $-1 -1 -1 $-1 0.82175695896148704 0.375 0 0 1 0 -1 -0 -0 forward_v I I I I #
-65 coedge $-1 -1 -1 $-1 $98 $99 $100 $101 forward $40 $102 #
-66 cface $-1 -1 $103 $42 $44 0 #
-67 cface $-1 -1 $104 $42 $29 0 #
-68 cface_ptr-ct-attrib $-1 -1 $-1 $-1 $44 1 1 1 1 1 1 1 1 1 1 1 1 0 1 0 1 1 1 $-1 $66 #
-69 face $105 -1 -1 $-1 $106 $107 $21 $-1 $108 forward single F F #
-70 loop $-1 -1 -1 $-1 $-1 $109 $44 T -3.9500000000000002 0 0 -3.9500000000000002 0.93213981389999401 0.10000000000000001 periphery $71 F #
-71 plane-surface $-1 -1 -1 $-1 -3.9500000000000002 0.466069906949997 0 -1 0 0 0 -1 0 forward_v I I I I #
-72 coedge $-1 -1 -1 $-1 $110 $111 $112 $113 forward $45 $-1 #
-73 cface $-1 -1 $114 $47 $76 0 #
-74 cface $-1 -1 $-1 $47 $31 0 #
-75 cface_ptr-ct-attrib $-1 -1 $-1 $-1 $49 1 1 1 1 1 1 1 1 1 1 1 1 0 1 0 1 1 1 $-1 $115 #
-76 face $116 -1 -1 $-1 $117 $118 $23 $-1 $119 forward single F F #
-77 loop $-1 -1 -1 $-1 $-1 $120 $49 T -0.68553634166717492 0.56741106510162398 0 -0.067038195133208967 0.56741106510162398 0.10000000000000001 periphery $78 F #
-78 plane-surface $-1 -1 -1 $-1 -0.37628726840019194 0.56741106510162398 0 0 1 0 -1 -0 -0 forward_v I I I I #
-79 coedge $-1 -1 -1 $-1 $121 $122 $123 $124 forward $50 $-1 #
-80 cface $-1 -1 $125 $32 $83 0 #
-81 cface $-1 -1 $126 $32 $34 0 #
-82 cface_ptr-ct-attrib $-1 -1 $-1 $-1 $55 1 1 1 1 1 1 1 1 1 1 1 1 0 1 0 1 1 1 $-1 $52 #
-83 face $127 -1 -1 $-1 $128 $129 $17 $-1 $130 forward single F F #
-84 loop $-1 -1 -1 $-1 $-1 $131 $55 T -2.5 0 0 -2.5 1.125 0.10000000000000001 periphery $85 F #
-85 plane-surface $-1 -1 -1 $-1 -2.5 0.5625 0 -1 0 0 0 -1 0 forward_v I I I I #
-86 coedge $-1 -1 -1 $-1 $132 $133 $134 $135 forward $56 $-1 #
-87 coedge $-1 -1 -1 $-1 $136 $58 $133 $137 reversed $35 $-1 #
-88 coedge $-1 -1 -1 $-1 $58 $136 $138 $139 forward $35 $-1 #
-89 coedge $-1 -1 -1 $-1 $140 $134 $58 $90 reversed $141 $-1 #
-90 edge $-1 -1 -1 $-1 $142 -1.125 $143 -0 $58 $144 forward @7 unknown T 0.89351391792297397 0 0.10000000000000001 0.89351391792297397 1.125 0.10000000000000001 #
-91 cface $-1 -1 $145 $37 $62 0 #
-92 cface $-1 -1 $146 $37 $94 0 #
-93 cface_ptr-ct-attrib $-1 -1 $-1 $-1 $62 1 1 1 1 1 1 1 1 1 1 1 1 0 1 0 1 1 1 $-1 $91 #
-94 face $147 -1 -1 $-1 $148 $149 $19 $-1 $150 forward single F F #
-95 loop $-1 -1 -1 $-1 $-1 $151 $62 T 0.89351391792297397 0 0 0.89351391792297397 0.375 0.10000000000000001 periphery $96 F #
-96 plane-surface $-1 -1 -1 $-1 0.89351391792297397 0.1875 0 1 0 -0 -0 1 -0 forward_v I I I I #
-97 coedge $-1 -1 -1 $-1 $152 $153 $154 $155 forward $63 $-1 #
-98 coedge $-1 -1 -1 $-1 $156 $65 $153 $157 reversed $40 $158 #
-99 coedge $-1 -1 -1 $-1 $65 $156 $159 $160 forward $40 $161 #
-100 coedge $-1 -1 -1 $-1 $162 $154 $65 $101 reversed $163 $-1 #
-101 edge $-1 -1 -1 $-1 $164 0 $165 3.4218694550203539 $65 $166 forward @7 unknown T -2.5 0.34501629433549302 0.10000000000000001 0.75 1.1661766529895565 0.10000000000000001 #
-102 pcurve $-1 -1 -1 $-1 0 forward { exppc nubs 1 open 2 
	0 1 3.4218694550203539 1 
	0 0.10000000000000001 
	-3.4218694550203539 0.10000000000000001 
	0 
	-1 
	spline forward { ref 0 } I I I I 
	} 0 0 #
-103 cface $-1 -1 $67 $42 $69 0 #
-104 cface $-1 -1 $167 $42 $106 0 #
-105 cface_ptr-ct-attrib $-1 -1 $-1 $-1 $69 1 1 1 1 1 1 1 1 1 1 1 1 0 1 0 1 1 1 $-1 $103 #
-106 face $168 -1 -1 $-1 $169 $170 $21 $-1 $171 forward single F F #
-107 loop $-1 -1 -1 $-1 $-1 $172 $69 T -3.9500000000000002 0.18481217529553323 0 -0.79995351040776819 0.95539026345169842 0.10000000000000001 periphery $108 F #
-108 spline-surface $-1 -1 -1 $-1 forward { sumsur 
	intcurve reversed { exactcur full nubs 3 open 7 
	0 3 0.75232853889465057 1 1.3778087346844723 1 2.4356981400645772 1 3.1581297320362984 1 
	3.2266316813465985 1 3.3188623767488292 3 
	-3.9500000000000002 0.93213981389999401 0 
	-3.6992708125057021 0.93015576909769648 0 
	-3.2400872953184603 0.92652220461451573 0 
	-2.4275041747979702 0.95539026345169842 0 
	-1.62963302714318 0.73458163853017999 0 
	-1.181461215767498 0.18481217529553323 0 
	-0.88438413240083769 0.19360640803099002 0 
	-0.83069270594012012 0.19397884013694039 0 
	-0.79995351040776819 0.1939645496086301 0 
	0 
	null_surface 
	null_surface 
	nullbs 
	nullbs 
	-1 
	-1 
	I I 
	0 
	0 
	5 0.75232853889465057 1.3778087346844723 2.4356981400645772 3.1581297320362984 3.2266316813465985 
	
	-1 
	none F F 1 F 0 } I I 
	straight -0.883795154094696 0 0 0 0 1 I I 
	-0.883795154094696 0 0 
	none F -3.3188623767488292 F -0 F 0 F 0.10000000000000001 OPEN OPEN NON_SINGULAR NON_SINGULAR 
	0 
	0 
	5 -3.2266316813465985 -3.1581297320362984 -2.4356981400645772 -1.3778087346844723 -0.75232853889465057 
	0 
	0 
	0 
	} I I I I #
-109 coedge $-1 -1 -1 $-1 $173 $174 $175 $176 forward $70 $-1 #
-110 coedge $-1 -1 -1 $-1 $177 $72 $174 $178 reversed $45 $-1 #
-111 coedge $-1 -1 -1 $-1 $72 $179 $180 $181 forward $45 $-1 #
-112 coedge $-1 -1 -1 $-1 $180 $175 $72 $113 reversed $182 $-1 #
-113 edge $-1 -1 -1 $-1 $183 0 $184 3.066204845905304 $72 $185 forward @7 unknown T -3.9500000000000002 0 0.10000000000000001 -0.883795154094696 0 0.10000000000000001 #
-114 cface $-1 -1 $186 $47 $117 0 #
-115 cface $-1 -1 $187 $47 $49 0 #
-116 cface_ptr-ct-attrib $-1 -1 $-1 $-1 $76 1 1 1 1 1 1 1 1 1 1 1 1 0 1 0 1 1 1 $-1 $73 #
-117 face $188 -1 -1 $-1 $189 $190 $23 $-1 $191 forward single F F #
-118 loop $-1 -1 -1 $-1 $-1 $192 $76 T -0.067038195133208994 0 0 -0.067038195133208994 0.56741106510162398 0.10000000000000001 periphery $119 F #
-119 plane-surface $-1 -1 -1 $-1 -0.067038195133208994 0.28370553255081199 0 1 0 -0 -0 1 -0 forward_v I I I I #
-120 coedge $-1 -1 -1 $-1 $193 $194 $195 $196 forward $77 $-1 #
-121 coedge $-1 -1 -1 $-1 $197 $79 $194 $198 reversed $50 $-1 #
-122 coedge $-1 -1 -1 $-1 $79 $197 $199 $200 forward $50 $-1 #
-123 coedge $-1 -1 -1 $-1 $201 $195 $79 $124 reversed $202 $-1 #
-124 edge $-1 -1 -1 $-1 $203 0 $204 0.56741106510162398 $79 $205 forward @7 unknown T -0.68553634166717492 0 0.10000000000000001 -0.68553634166717492 0.56741106510162398 0.10000000000000001 #
-125 cface $-1 -1 $81 $32 $206 0 #
-126 cface $-1 -1 $53 $32 $128 0 #
-127 cface_ptr-ct-attrib $-1 -1 $-1 $-1 $83 1 1 1 1 1 1 1 1 1 1 1 1 0 1 0 1 1 1 $-1 $80 #
-128 face $207 -1 -1 $-1 $206 $141 $17 $-1 $208 forward single F F #
-129 loop $-1 -1 -1 $-1 $-1 $209 $83 T -2.5 1.125 0 0.89351391792297397 1.125 0.10000000000000001 periphery $130 F #
-130 plane-surface $-1 -1 -1 $-1 -0.80324304103851307 1.125 0 0 1 -0 -1 0 0 forward_v I I I I #
-131 coedge $-1 -1 -1 $-1 $210 $211 $212 $213 forward $84 $-1 #
-132 coedge $-1 -1 -1 $-1 $214 $86 $211 $215 reversed $56 $-1 #
-133 coedge $-1 -1 -1 $-1 $86 $214 $87 $137 forward $56 $-1 #
-134 coedge $-1 -1 -1 $-1 $89 $212 $86 $135 reversed $141 $-1 #
-135 edge $-1 -1 -1 $-1 $143 -3.3935139179229741 $216 -0 $86 $217 forward @7 unknown T -2.5 0 0.10000000000000001 0.89351391792297408 0 0.10000000000000001 #
-136 coedge $-1 -1 -1 $-1 $88 $87 $218 $219 forward $35 $-1 #
-137 edge $-1 -1 -1 $-1 $220 0 $143 0.10000000000000001 $133 $221 forward @7 unknown T 0.89351391792297397 0 0 0.89351391792297397 0 0.10000000000000001 #
-138 coedge $-1 -1 -1 $-1 $222 $209 $88 $139 reversed $129 $-1 #
-139 edge $-1 -1 -1 $-1 $223 0 $142 0.10000000000000001 $88 $224 forward @7 unknown T 0.89351391792297397 1.125 0 0.89351391792297397 1.125 0.10000000000000001 #
-140 coedge $-1 -1 -1 $-1 $212 $89 $209 $225 reversed $141 $-1 #
-141 loop $-1 -1 -1 $-1 $-1 $89 $128 T -2.5 0 0.10000000000000001 0.89351391792297408 1.125 0.10000000000000001 periphery $208 F #
-142 vertex $-1 -1 -1 $-1 $139 $226 #
-143 vertex $-1 -1 -1 $-1 $137 $227 #
-144 straight-curve $-1 -1 -1 $-1 0.89351391792297397 0 0.10000000000000001 -0 -1 -0 I I #
-145 cface $-1 -1 $228 $37 $229 0 #
-146 cface $-1 -1 $230 $37 $231 0 #
-147 cface_ptr-ct-attrib $-1 -1 $-1 $-1 $94 1 1 1 1 1 1 1 1 1 1 1 1 0 1 0 1 1 1 $-1 $92 #
-148 face $232 -1 -1 $-1 $233 $234 $19 $-1 $235 forward single F F #
-149 loop $-1 -1 -1 $-1 $-1 $236 $94 T 0.75 0 0 0.89351391792297397 0 0.10000000000000001 periphery $150 F #
-150 plane-surface $-1 -1 -1 $-1 0.82175695896148704 0 0 0 -1 0 1 -0 -0 forward_v I I I I #
-151 coedge $-1 -1 -1 $-1 $237 $238 $239 $240 forward $95 $-1 #
-152 coedge $-1 -1 -1 $-1 $241 $97 $238 $242 reversed $63 $-1 #
-153 coedge $-1 -1 -1 $-1 $97 $241 $98 $157 forward $63 $-1 #
-154 coedge $-1 -1 -1 $-1 $100 $239 $97 $155 reversed $163 $-1 #
-155 edge $-1 -1 -1 $-1 $165 0 $243 0.14351391792297397 $97 $244 forward @7 unknown T 0.75 0.375 0.10000000000000001 0.89351391792297397 0.375 0.10000000000000001 #
-156 coedge $-1 -1 -1 $-1 $99 $98 $245 $246 reversed $40 $247 #
-157 edge $-1 -1 -1 $-1 $248 0 $165 0.10000000000000001 $153 $249 forward @7 unknown T 0.75 0.375 0 0.75 0.375 0.10000000000000001 #
-158 pcurve $-1 -1 -1 $-1 0 forward { exppc nubs 1 open 2 
	-0.10000000000000001 1 -0 1 
	-3.4218694550203539 0.10000000000000001 
	-3.4218694550203539 0 
	0 
	-1 
	spline forward { ref 0 } I I I I 
	} 0 0 #
-159 coedge $-1 -1 -1 $-1 $250 $251 $99 $160 reversed $252 $-1 #
-160 edge $-1 -1 -1 $-1 $253 0 $164 0.10000000000000001 $99 $254 forward @7 unknown T -2.5 1.125 0 -2.5 1.125 0.10000000000000001 #
-161 pcurve $-1 -1 -1 $-1 0 forward { exppc nubs 1 open 2 
	0 1 0.10000000000000001 1 
	-0 0 
	-0 0.10000000000000001 
	0 
	-1 
	spline forward { ref 0 } I I I I 
	} 0 0 #
-162 coedge $-1 -1 -1 $-1 $255 $100 $251 $256 reversed $163 $-1 #
-163 loop $-1 -1 -1 $-1 $-1 $100 $257 T -2.5 0 0.10000000000000001 0.89351391792297397 1.1661766529895565 0.10000000000000001 periphery $258 F #
-164 vertex $-1 -1 -1 $-1 $160 $259 #
-165 vertex $-1 -1 -1 $-1 $157 $260 #
-166 intcurve-curve $-1 -1 -1 $-1 forward { exactcur full nubs 3 open 6 
	0 3 0.75 1 1.375 1 2.4430004681646915 1 3.1718694550203539 1 
	3.4218694550203539 3 
	-2.5 1.125 0.10000000000000001 
	-2.2503125289624117 1.1215177332800437 0.10000000000000001 
	-1.7925521653934995 1.1151335776267903 0.10000000000000001 
	-0.97363762559635081 1.1661766529895565 0.10000000000000001 
	-0.19187749278150193 0.88171925873837265 0.10000000000000001 
	0.33149908069514927 0.34501629433549302 0.10000000000000001 
	0.6648605498671426 0.36890014192212078 0.10000000000000001 
	0.75 0.375 0.10000000000000001 
	0 
	null_surface 
	null_surface 
	nullbs 
	nullbs 
	-1 
	-1 
	I I 
	0 
	0 
	4 0.75 1.375 2.4430004681646915 3.1718694550203539 
	
	-1 
	none F F 1 F 0 } I I #
-167 cface $-1 -1 $261 $42 $262 0 #
-168 cface_ptr-ct-attrib $-1 -1 $-1 $-1 $106 1 1 1 1 1 1 1 1 1 1 1 1 0 1 0 1 1 1 $-1 $104 #
-169 face $263 -1 -1 $-1 $264 $265 $21 $-1 $266 forward single F F #
-170 loop $-1 -1 -1 $-1 $-1 $267 $106 T -0.79995351040776819 0.19396454960863005 0 -0.74000634270922583 0.1939645496086301 0.10000000000000001 periphery $171 F #
-171 plane-surface $-1 -1 -1 $-1 -0.76997992655849701 0.19396454960863008 0 9.2600123345956847e-016 1 -0 -1 9.2600123345956847e-016 -0 forward_v I I I I #
-172 coedge $-1 -1 -1 $-1 $268 $269 $270 $271 forward $107 $272 #
-173 coedge $-1 -1 -1 $-1 $273 $109 $269 $274 reversed $70 $-1 #
-174 coedge $-1 -1 -1 $-1 $109 $273 $110 $178 forward $70 $-1 #
-175 coedge $-1 -1 -1 $-1 $112 $270 $109 $176 reversed $182 $-1 #
-176 edge $-1 -1 -1 $-1 $184 -0.93213981389999401 $275 0 $109 $276 forward @7 unknown T -3.9500000000000002 0 0.10000000000000001 -3.9500000000000002 0.93213981389999401 0.10000000000000001 #
-177 coedge $-1 -1 -1 $-1 $277 $110 $278 $279 reversed $45 $-1 #
-178 edge $-1 -1 -1 $-1 $280 0 $184 0.10000000000000001 $174 $281 forward @7 unknown T -3.9500000000000002 0 0 -3.9500000000000002 0 0.10000000000000001 #
-179 coedge $-1 -1 -1 $-1 $111 $277 $282 $283 forward $45 $-1 #
-180 coedge $-1 -1 -1 $-1 $284 $112 $111 $181 reversed $182 $-1 #
-181 edge $-1 -1 -1 $-1 $285 -0.1837887406349179 $183 -0 $111 $286 forward @7 unknown T -0.883795154094696 0 0.10000000000000001 -0.7000064134597781 0 0.10000000000000001 #
-182 loop $-1 -1 -1 $-1 $-1 $112 $287 T -3.9500000000000002 0 0.10000000000000001 -0.70000641345975412 0.95539026345169842 0.10000000000000001 periphery $288 F #
-183 vertex $-1 -1 -1 $-1 $181 $289 #
-184 vertex $-1 -1 -1 $-1 $178 $290 #
-185 straight-curve $-1 -1 -1 $-1 -0.883795154094696 0 0.10000000000000001 -1 0 0 I I #
-186 cface $-1 -1 $115 $47 $291 0 #
-187 cface $-1 -1 $74 $47 $189 0 #
-188 cface_ptr-ct-attrib $-1 -1 $-1 $-1 $117 1 1 1 1 1 1 1 1 1 1 1 1 0 1 0 1 1 1 $-1 $114 #
-189 face $292 -1 -1 $-1 $291 $202 $23 $-1 $293 forward single F F #
-190 loop $-1 -1 -1 $-1 $-1 $294 $117 T -0.68553634166717492 0 0 -0.067038195133208994 0 0.10000000000000001 periphery $191 F #
-191 plane-surface $-1 -1 -1 $-1 -0.376287268400192 0 0 0 -1 0 1 -0 -0 forward_v I I I I #
-192 coedge $-1 -1 -1 $-1 $295 $296 $297 $298 forward $118 $-1 #
-193 coedge $-1 -1 -1 $-1 $299 $120 $296 $300 reversed $77 $-1 #
-194 coedge $-1 -1 -1 $-1 $120 $299 $121 $198 forward $77 $-1 #
-195 coedge $-1 -1 -1 $-1 $123 $297 $120 $196 reversed $202 $-1 #
-196 edge $-1 -1 -1 $-1 $204 0 $301 0.61849814653396595 $120 $302 forward @7 unknown T -0.68553634166717492 0.56741106510162398 0.10000000000000001 -0.067038195133208967 0.56741106510162398 0.10000000000000001 #
-197 coedge $-1 -1 -1 $-1 $122 $121 $303 $304 reversed $50 $-1 #
-198 edge $-1 -1 -1 $-1 $305 0 $204 0.10000000000000001 $194 $306 forward @7 unknown T -0.68553634166717492 0.56741106510162398 0 -0.68553634166717492 0.56741106510162398 0.10000000000000001 #
-199 coedge $-1 -1 -1 $-1 $307 $294 $122 $200 reversed $190 $-1 #
-200 edge $-1 -1 -1 $-1 $308 0 $203 0.10000000000000001 $122 $309 forward @7 unknown T -0.68553634166717492 0 0 -0.68553634166717492 0 0.10000000000000001 #
-201 coedge $-1 -1 -1 $-1 $297 $123 $294 $310 reversed $202 $-1 #
-202 loop $-1 -1 -1 $-1 $-1 $123 $189 T -0.68553634166717492 0 0.10000000000000001 -0.067038195133208967 0.56741106510162398 0.10000000000000001 periphery $293 F #
-203 vertex $-1 -1 -1 $-1 $200 $311 #
-204 vertex $-1 -1 -1 $-1 $198 $312 #
-205 straight-curve $-1 -1 -1 $-1 -0.68553634166717492 0 0.10000000000000001 0 1 0 I I #
-206 face $313 -1 -1 $-1 $-1 $314 $17 $-1 $315 reversed single F F #
-207 cface_ptr-ct-attrib $-1 -1 $-1 $-1 $128 1 1 1 1 1 1 1 1 1 1 1 1 0 1 0 1 1 1 $-1 $126 #
-208 plane-surface $-1 -1 -1 $-1 -0.80324304103851318 0.5625 0.10000000000000001 0 0 1 1 0 0 forward_v I I I I #
-209 coedge $-1 -1 -1 $-1 $138 $316 $140 $225 forward $129 $-1 #
-210 coedge $-1 -1 -1 $-1 $317 $131 $316 $318 reversed $84 $-1 #
-211 coedge $-1 -1 -1 $-1 $131 $317 $132 $215 forward $84 $-1 #
-212 coedge $-1 -1 -1 $-1 $134 $140 $131 $213 reversed $141 $-1 #
-213 edge $-1 -1 -1 $-1 $216 -1.125 $319 0 $131 $320 forward @7 unknown T -2.5 0 0.10000000000000001 -2.5 1.125 0.10000000000000001 #
-214 coedge $-1 -1 -1 $-1 $133 $132 $321 $322 forward $56 $-1 #
-215 edge $-1 -1 -1 $-1 $323 0 $216 0.10000000000000001 $211 $324 forward @7 unknown T -2.5 0 0 -2.5 0 0.10000000000000001 #
-216 vertex $-1 -1 -1 $-1 $215 $325 #
-217 straight-curve $-1 -1 -1 $-1 -2.5 0 0.10000000000000001 -1 -0 -0 I I #
-218 coedge $-1 -1 -1 $-1 $321 $326 $136 $219 reversed $314 $-1 #
-219 edge $-1 -1 -1 $-1 $220 0 $223 1.125 $136 $327 forward @7 unknown T 0.89351391792297397 0 0 0.89351391792297397 1.125 0 #
-220 vertex $-1 -1 -1 $-1 $219 $328 #
-221 straight-curve $-1 -1 -1 $-1 0.89351391792297397 0 0 0 0 1 I I #
-222 coedge $-1 -1 -1 $-1 $316 $138 $326 $329 forward $129 $-1 #
-223 vertex $-1 -1 -1 $-1 $329 $330 #
-224 straight-curve $-1 -1 -1 $-1 0.89351391792297397 1.125 0 0 0 1 I I #
-225 edge $-1 -1 -1 $-1 $319 -3.3935139179229741 $142 0 $209 $331 forward @7 unknown T -2.5 1.125 0.10000000000000001 0.89351391792297397 1.125 0.10000000000000001 #
-226 point $-1 -1 -1 $-1 0.89351391792297397 1.125 0.10000000000000001 #
-227 point $-1 -1 -1 $-1 0.89351391792297397 0 0.10000000000000001 #
-228 cface $-1 -1 $60 $37 $332 0 #
-229 face $333 -1 -1 $-1 $332 $334 $19 $-1 $335 forward single F F #
-230 cface $-1 -1 $336 $37 $233 0 #
-231 face $337 -1 -1 $-1 $-1 $338 $19 $-1 $339 reversed single F F #
-232 cface_ptr-ct-attrib $-1 -1 $-1 $-1 $148 1 1 1 1 1 1 1 1 1 1 1 1 0 1 0 1 1 1 $-1 $340 #
-233 face $341 -1 -1 $-1 $229 $342 $19 $-1 $343 forward single F F #
-234 loop $-1 -1 -1 $-1 $-1 $344 $148 T 0.75 0 0 0.75 0.14385035626791196 0.10000000000000001 periphery $235 F #
-235 plane-surface $-1 -1 -1 $-1 0.75 0.13325683768939098 0 -1 0 0 -0 -1 -0 forward_v I I I I #
-236 coedge $-1 -1 -1 $-1 $345 $346 $347 $348 forward $149 $-1 #
-237 coedge $-1 -1 -1 $-1 $349 $151 $346 $350 reversed $95 $-1 #
-238 coedge $-1 -1 -1 $-1 $151 $349 $152 $242 forward $95 $-1 #
-239 coedge $-1 -1 -1 $-1 $154 $347 $151 $240 reversed $163 $-1 #
-240 edge $-1 -1 -1 $-1 $243 0 $351 0.375 $151 $352 forward @7 unknown T 0.89351391792297397 0 0.10000000000000001 0.89351391792297397 0.375 0.10000000000000001 #
-241 coedge $-1 -1 -1 $-1 $153 $152 $353 $354 reversed $63 $-1 #
-242 edge $-1 -1 -1 $-1 $355 0 $243 0.10000000000000001 $238 $356 forward @7 unknown T 0.89351391792297397 0.375 0 0.89351391792297397 0.375 0.10000000000000001 #
-243 vertex $-1 -1 -1 $-1 $242 $357 #
-244 straight-curve $-1 -1 -1 $-1 0.75 0.375 0.10000000000000001 1 0 0 I I #
-245 coedge $-1 -1 -1 $-1 $353 $358 $156 $246 forward $338 $-1 #
-246 edge $-1 -1 -1 $-1 $253 0 $248 3.4218694550203539 $156 $359 forward @7 unknown T -2.5 0.34501629433549302 0 0.75 1.1661766529895565 0 #
-247 pcurve $-1 -1 -1 $-1 0 forward { exppc nubs 1 open 2 
	-3.4218694550203539 1 -0 1 
	-3.4218694550203539 0 
	0 0 
	0 
	-1 
	spline forward { ref 0 } I I I I 
	} 0 0 #
-248 vertex $-1 -1 -1 $-1 $246 $360 #
-249 straight-curve $-1 -1 -1 $-1 0.75 0.375 0 0 0 1 I I #
-250 coedge $-1 -1 -1 $-1 $361 $159 $358 $362 reversed $252 $-1 #
-251 coedge $-1 -1 -1 $-1 $159 $361 $162 $256 forward $252 $-1 #
-252 loop $-1 -1 -1 $-1 $-1 $251 $332 T -2.5 1 0 -2.5 1.125 0.10000000000000001 periphery $363 F #
-253 vertex $-1 -1 -1 $-1 $362 $364 #
-254 straight-curve $-1 -1 -1 $-1 -2.5 1.125 0 0 0 1 I I #
-255 coedge $-1 -1 -1 $-1 $365 $162 $366 $367 reversed $163 $-1 #
-256 edge $-1 -1 -1 $-1 $368 0 $164 0.125 $251 $369 forward @7 unknown T -2.5 1 0.10000000000000001 -2.5 1.125 0.10000000000000001 #
-257 face $370 -1 -1 $-1 $231 $163 $19 $-1 $258 forward single F F #
-258 plane-surface $-1 -1 -1 $-1 -0.68162881907041473 0.75540333473993737 0.10000000000000001 0 0 1 1 0 0 forward_v I I I I #
-259 point $-1 -1 -1 $-1 -2.5 1.125 0.10000000000000001 #
-260 point $-1 -1 -1 $-1 0.75 0.375 0.10000000000000001 #
-261 cface $-1 -1 $371 $42 $264 0 #
-262 face $372 -1 -1 $-1 $-1 $373 $21 $-1 $374 reversed single F F #
-263 cface_ptr-ct-attrib $-1 -1 $-1 $-1 $169 1 1 1 1 1 1 1 1 1 1 1 1 0 1 0 1 1 1 $-1 $375 #
-264 face $376 -1 -1 $-1 $287 $377 $21 $-1 $378 forward single F F #
-265 loop $-1 -1 -1 $-1 $-1 $379 $169 T -0.74000634270922583 0.15396460514412427 0 -0.70000641345975412 0.19396454960863005 0.10000000000000001 periphery $266 F #
-266 cone-surface $-1 -1 -1 $-1 -0.74000641345977813 0.15396454960863004 0 0 0 1 0.040000000000062576 0 0 1 I I 0 1 0.040000000000062576 forward I I I I #
-267 coedge $-1 -1 -1 $-1 $380 $381 $382 $383 forward $170 $-1 #
-268 coedge $-1 -1 -1 $-1 $384 $172 $381 $385 reversed $107 $386 #
-269 coedge $-1 -1 -1 $-1 $172 $384 $173 $274 forward $107 $387 #
-270 coedge $-1 -1 -1 $-1 $175 $382 $172 $271 reversed $182 $-1 #
-271 edge $-1 -1 -1 $-1 $275 0 $388 3.3188623767488292 $172 $389 forward @7 unknown T -3.9500000000000002 0.18481217529553323 0.10000000000000001 -0.79995351040776819 0.95539026345169842 0.10000000000000001 #
-272 pcurve $-1 -1 -1 $-1 0 forward { exppc nubs 1 open 2 
	0 1 3.3188623767488292 1 
	0 0.10000000000000001 
	-3.3188623767488292 0.10000000000000001 
	0 
	-1 
	spline forward { ref 3 } I I I I 
	} 0 0 #
-273 coedge $-1 -1 -1 $-1 $174 $173 $390 $391 forward $70 $-1 #
-274 edge $-1 -1 -1 $-1 $392 0 $275 0.10000000000000001 $269 $393 forward @7 unknown T -3.9500000000000002 0.93213981389999401 0 -3.9500000000000002 0.93213981389999401 0.10000000000000001 #
-275 vertex $-1 -1 -1 $-1 $274 $394 #
-276 straight-curve $-1 -1 -1 $-1 -3.9500000000000002 0.93213981389999401 0.10000000000000001 0 1 0 I I #
-277 coedge $-1 -1 -1 $-1 $179 $177 $395 $396 forward $45 $-1 #
-278 coedge $-1 -1 -1 $-1 $390 $395 $177 $279 forward $373 $-1 #
-279 edge $-1 -1 -1 $-1 $397 0 $280 3.066204845905304 $177 $398 forward @7 unknown T -3.9500000000000002 0 0 -0.883795154094696 0 0 #
-280 vertex $-1 -1 -1 $-1 $391 $399 #
-281 straight-curve $-1 -1 -1 $-1 -3.9500000000000002 0 0 0 0 1 I I #
-282 coedge $-1 -1 -1 $-1 $400 $401 $179 $283 reversed $377 $-1 #
-283 edge $-1 -1 -1 $-1 $402 0 $285 0.10000000000000001 $179 $403 forward @7 unknown T -0.7000064134597781 0 0 -0.7000064134597781 0 0.10000000000000001 #
-284 coedge $-1 -1 -1 $-1 $404 $180 $401 $405 reversed $182 $-1 #
-285 vertex $-1 -1 -1 $-1 $283 $406 #
-286 straight-curve $-1 -1 -1 $-1 -0.883795154094696 0 0.10000000000000001 -1 -0 -0 I I #
-287 face $407 -1 -1 $-1 $262 $182 $21 $-1 $288 forward single F F #
-288 plane-surface $-1 -1 -1 $-1 -2.4662315339366283 0.3655768093705592 0.10000000000000001 0 0 1 1 0 0 forward_v I I I I #
-289 point $-1 -1 -1 $-1 -0.883795154094696 0 0.10000000000000001 #
-290 point $-1 -1 -1 $-1 -3.9500000000000002 0 0.10000000000000001 #
-291 face $408 -1 -1 $-1 $-1 $409 $23 $-1 $410 reversed single F F #
-292 cface_ptr-ct-attrib $-1 -1 $-1 $-1 $189 1 1 1 1 1 1 1 1 1 1 1 1 0 1 0 1 1 1 $-1 $187 #
-293 plane-surface $-1 -1 -1 $-1 -0.376287268400192 0.28370553255081199 0.10000000000000001 0 0 1 1 0 0 forward_v I I I I #
-294 coedge $-1 -1 -1 $-1 $199 $411 $201 $310 forward $190 $-1 #
-295 coedge $-1 -1 -1 $-1 $412 $192 $411 $413 reversed $118 $-1 #
-296 coedge $-1 -1 -1 $-1 $192 $412 $193 $300 forward $118 $-1 #
-297 coedge $-1 -1 -1 $-1 $195 $201 $192 $298 reversed $202 $-1 #
-298 edge $-1 -1 -1 $-1 $301 0 $414 0.56741106510162398 $192 $415 forward @7 unknown T -0.067038195133208994 0 0.10000000000000001 -0.067038195133208994 0.56741106510162398 0.10000000000000001 #
-299 coedge $-1 -1 -1 $-1 $194 $193 $416 $417 reversed $77 $-1 #
-300 edge $-1 -1 -1 $-1 $418 0 $301 0.10000000000000001 $296 $419 forward @7 unknown T -0.067038195133208994 0.56741106510162398 0 -0.067038195133208994 0.56741106510162398 0.10000000000000001 #
-301 vertex $-1 -1 -1 $-1 $300 $420 #
-302 straight-curve $-1 -1 -1 $-1 -0.68553634166717492 0.56741106510162398 0.10000000000000001 1 0 0 I I #
-303 coedge $-1 -1 -1 $-1 $416 $421 $197 $304 forward $409 $-1 #
-304 edge $-1 -1 -1 $-1 $308 0 $305 0.56741106510162398 $197 $422 forward @7 unknown T -0.68553634166717492 0 0 -0.68553634166717492 0.56741106510162398 0 #
-305 vertex $-1 -1 -1 $-1 $417 $423 #
-306 straight-curve $-1 -1 -1 $-1 -0.68553634166717492 0.56741106510162398 0 0 0 1 I I #
-307 coedge $-1 -1 -1 $-1 $411 $199 $421 $424 reversed $190 $-1 #
-308 vertex $-1 -1 -1 $-1 $424 $425 #
-309 straight-curve $-1 -1 -1 $-1 -0.68553634166717492 0 0 0 0 1 I I #
-310 edge $-1 -1 -1 $-1 $414 0 $203 0.61849814653396595 $294 $426 forward @7 unknown T -0.68553634166717492 0 0.10000000000000001 -0.067038195133208994 0 0.10000000000000001 #
-311 point $-1 -1 -1 $-1 -0.68553634166717492 0 0.10000000000000001 #
-312 point $-1 -1 -1 $-1 -0.68553634166717492 0.56741106510162398 0.10000000000000001 #
-313 cface_ptr-ct-attrib $-1 -1 $-1 $-1 $206 1 1 1 1 1 1 1 1 1 1 1 1 0 1 0 1 1 1 $-1 $125 #
-314 loop $-1 -1 -1 $-1 $-1 $326 $206 T -2.5 0 0 0.89351391792297408 1.125 0 periphery $315 T #
-315 plane-surface $-1 -1 -1 $-1 -0.80324304103851318 0.5625 0 0 0 1 1 0 0 forward_v I I I I #
-316 coedge $-1 -1 -1 $-1 $209 $222 $210 $318 forward $129 $-1 #
-317 coedge $-1 -1 -1 $-1 $211 $210 $427 $428 forward $84 $-1 #
-318 edge $-1 -1 -1 $-1 $429 0 $319 0.10000000000000001 $316 $430 forward @7 unknown T -2.5 1.125 0 -2.5 1.125 0.10000000000000001 #
-319 vertex $-1 -1 -1 $-1 $318 $431 #
-320 straight-curve $-1 -1 -1 $-1 -2.5 1.125 0.10000000000000001 0 1 0 I I #
-321 coedge $-1 -1 -1 $-1 $427 $218 $214 $322 reversed $314 $-1 #
-322 edge $-1 -1 -1 $-1 $323 0 $220 3.3935139179229741 $214 $432 forward @7 unknown T -2.5 0 0 0.89351391792297408 0 0 #
-323 vertex $-1 -1 -1 $-1 $322 $433 #
-324 straight-curve $-1 -1 -1 $-1 -2.5 0 0 0 0 1 I I #
-325 point $-1 -1 -1 $-1 -2.5 0 0.10000000000000001 #
-326 coedge $-1 -1 -1 $-1 $218 $427 $222 $329 reversed $314 $-1 #
-327 straight-curve $-1 -1 -1 $-1 0.89351391792297397 0 0 0 1 0 I I #
-328 point $-1 -1 -1 $-1 0.89351391792297397 0 0 #
-329 edge $-1 -1 -1 $-1 $223 0 $429 3.3935139179229741 $222 $434 forward @7 unknown T -2.5 1.125 0 0.89351391792297397 1.125 0 #
-330 point $-1 -1 -1 $-1 0.89351391792297397 1.125 0 #
-331 straight-curve $-1 -1 -1 $-1 0.89351391792297397 1.125 0.10000000000000001 1 0 0 I I #
-332 face $435 -1 -1 $-1 $257 $252 $19 $-1 $363 forward single F F #
-333 cface_ptr-ct-attrib $-1 -1 $-1 $-1 $229 1 1 1 1 1 1 1 1 1 1 1 1 0 1 0 1 1 1 $-1 $145 #
-334 loop $-1 -1 -1 $-1 $-1 $366 $229 T -2.5 0.24196666484724619 0 0.64636310804525332 1.0411766529895563 0.10000000000000001 periphery $335 F #
-335 spline-surface $-1 -1 -1 $-1 forward { sumsur 
	intcurve forward { exactcur full nubs 3 open 6 
	0 3 0.75 1 1.375 1 2.4430004681646915 1 3.1718694550203539 1 
	3.3200730369990099 3 
	-2.5 1 0 
	-2.2503125289624117 0.99651773328004367 0 
	-1.7925521653934995 0.99013357762679033 0 
	-0.97363762559635081 1.0411766529895563 0 
	-0.19187749278150193 0.75671925873837276 0 
	0.30547013179196775 0.24670800111906349 0 
	0.59642378484609893 0.24196666484724619 0 
	0.64636310804525332 0.24378410643611137 0 
	0 
	null_surface 
	null_surface 
	nullbs 
	nullbs 
	-1 
	-1 
	I I 
	0 
	0 
	4 0.75 1.375 2.4430004681646915 3.1718694550203539 
	
	-1 
	none F F 1 F 0 } I I 
	straight -2.5 1 0 0 0 1 I I 
	-2.5 1 0 
	none F 0 F 3.3200730369990099 F 0 F 0.10000000000000001 OPEN OPEN NON_SINGULAR NON_SINGULAR 
	0 
	0 
	4 0.75 1.375 2.4430004681646915 3.1718694550203539 
	0 
	0 
	0 
	} I I I I #
-336 cface $-1 -1 $340 $37 $257 0 #
-337 cface_ptr-ct-attrib $-1 -1 $-1 $-1 $231 1 1 1 1 1 1 1 1 1 1 1 1 0 1 0 1 1 1 $-1 $146 #
-338 loop $-1 -1 -1 $-1 $-1 $358 $231 T -2.5 0 0 0.89351391792297397 1.1661766529895565 0 periphery $339 T #
-339 plane-surface $-1 -1 -1 $-1 -0.68162881907041473 0.75540333473993737 0 0 0 1 1 0 0 forward_v I I I I #
-340 cface $-1 -1 $-1 $37 $148 0 #
-341 cface_ptr-ct-attrib $-1 -1 $-1 $-1 $233 1 1 1 1 1 1 1 1 1 1 1 1 0 1 0 1 1 1 $-1 $230 #
-342 loop $-1 -1 -1 $-1 $-1 $436 $233 T 0.64636310804525332 0.14385035626791196 0 0.75 0.24385026323517417 0.10000000000000001 periphery $343 F #
-343 cone-surface $-1 -1 -1 $-1 0.6499999999999998 0.14385026323517403 0 0 0 1 0.10000000000000016 0 0 1 I I 0 -1 0.10000000000000016 forward I I I I #
-344 coedge $-1 -1 -1 $-1 $437 $438 $439 $440 forward $234 $-1 #
-345 coedge $-1 -1 -1 $-1 $441 $236 $442 $443 reversed $149 $-1 #
-346 coedge $-1 -1 -1 $-1 $236 $441 $237 $350 forward $149 $-1 #
-347 coedge $-1 -1 -1 $-1 $239 $444 $236 $348 reversed $163 $-1 #
-348 edge $-1 -1 -1 $-1 $351 0 $445 0.14351391792297397 $236 $446 forward @7 unknown T 0.75 0 0.10000000000000001 0.89351391792297397 0 0.10000000000000001 #
-349 coedge $-1 -1 -1 $-1 $238 $237 $447 $448 reversed $95 $-1 #
-350 edge $-1 -1 -1 $-1 $449 0 $351 0.10000000000000001 $346 $450 forward @7 unknown T 0.89351391792297397 0 0 0.89351391792297397 0 0.10000000000000001 #
-351 vertex $-1 -1 -1 $-1 $350 $451 #
-352 straight-curve $-1 -1 -1 $-1 0.89351391792297397 0.375 0.10000000000000001 0 -1 0 I I #
-353 coedge $-1 -1 -1 $-1 $447 $245 $241 $354 forward $338 $-1 #
-354 edge $-1 -1 -1 $-1 $248 0 $355 0.14351391792297397 $241 $452 forward @7 unknown T 0.75 0.375 0 0.89351391792297397 0.375 0 #
-355 vertex $-1 -1 -1 $-1 $354 $453 #
-356 straight-curve $-1 -1 -1 $-1 0.89351391792297397 0.375 0 0 0 1 I I #
-357 point $-1 -1 -1 $-1 0.89351391792297397 0.375 0.10000000000000001 #
-358 coedge $-1 -1 -1 $-1 $245 $454 $250 $362 forward $338 $-1 #
-359 intcurve-curve $-1 -1 -1 $-1 forward { exactcur full nubs 3 open 6 
	0 3 0.75 1 1.375 1 2.4430004681646915 1 3.1718694550203539 1 
	3.4218694550203539 3 
	-2.5 1.125 0 
	-2.2503125289624117 1.1215177332800437 0 
	-1.7925521653934995 1.1151335776267903 0 
	-0.97363762559635081 1.1661766529895565 0 
	-0.19187749278150193 0.88171925873837265 0 
	0.33149908069514927 0.34501629433549302 0 
	0.6648605498671426 0.36890014192212078 0 
	0.75 0.375 0 
	0 
	null_surface 
	null_surface 
	nullbs 
	nullbs 
	-1 
	-1 
	I I 
	0 
	0 
	4 0.75 1.375 2.4430004681646915 3.1718694550203539 
	
	-1 
	none F F 1 F 0 } I I #
-360 point $-1 -1 -1 $-1 0.75 0.375 0 #
-361 coedge $-1 -1 -1 $-1 $251 $250 $455 $456 forward $252 $-1 #
-362 edge $-1 -1 -1 $-1 $457 0 $253 0.125 $250 $458 forward @7 unknown T -2.5 1 0 -2.5 1.125 0 #
-363 plane-surface $-1 -1 -1 $-1 -2.5 1.0625 0 -1 0 0 -0 -1 -0 forward_v I I I I #
-364 point $-1 -1 -1 $-1 -2.5 1.125 0 #
-365 coedge $-1 -1 -1 $-1 $439 $255 $436 $459 reversed $163 $-1 #
-366 coedge $-1 -1 -1 $-1 $455 $460 $255 $367 forward $334 $461 #
-367 edge $-1 -1 -1 $-1 $462 -3.3200730369990099 $368 -0 $366 $463 forward @7 unknown T -2.5 0.24196666484724619 0.10000000000000001 0.64636310804525332 1.0411766529895563 0.10000000000000001 #
-368 vertex $-1 -1 -1 $-1 $456 $464 #
-369 straight-curve $-1 -1 -1 $-1 -2.5 1 0.10000000000000001 0 1 0 I I #
-370 cface_ptr-ct-attrib $-1 -1 $-1 $-1 $257 1 1 1 1 1 1 1 1 1 1 1 1 0 1 0 1 1 1 $-1 $336 #
-371 cface $-1 -1 $375 $42 $287 0 #
-372 cface_ptr-ct-attrib $-1 -1 $-1 $-1 $262 1 1 1 1 1 1 1 1 1 1 1 1 0 1 0 1 1 1 $-1 $167 #
-373 loop $-1 -1 -1 $-1 $-1 $395 $262 T -3.9500000000000002 0 0 -0.70000641345975412 0.95539026345169842 0 periphery $374 T #
-374 plane-surface $-1 -1 -1 $-1 -2.4662315339366283 0.3655768093705592 0 0 0 1 1 0 0 forward_v I I I I #
-375 cface $-1 -1 $-1 $42 $169 0 #
-376 cface_ptr-ct-attrib $-1 -1 $-1 $-1 $264 1 1 1 1 1 1 1 1 1 1 1 1 0 1 0 1 1 1 $-1 $261 #
-377 loop $-1 -1 -1 $-1 $-1 $401 $264 T -0.7000064134597781 0 0 -0.7000064134597781 0.15396460514412427 0.10000000000000001 periphery $378 F #
-378 plane-surface $-1 -1 -1 $-1 -0.7000064134597781 0.076982302572062136 0 1 0 0 0 1 0 forward_v I I I I #
-379 coedge $-1 -1 -1 $-1 $465 $466 $404 $467 forward $265 $-1 #
-380 coedge $-1 -1 -1 $-1 $468 $267 $466 $469 reversed $170 $-1 #
-381 coedge $-1 -1 -1 $-1 $267 $468 $268 $385 forward $170 $-1 #
-382 coedge $-1 -1 -1 $-1 $270 $404 $267 $383 reversed $182 $-1 #
-383 edge $-1 -1 -1 $-1 $388 0 $470 0.059947167698542358 $267 $471 forward @7 unknown T -0.79995351040776819 0.19396454960863005 0.10000000000000001 -0.74000634270922583 0.1939645496086301 0.10000000000000001 #
-384 coedge $-1 -1 -1 $-1 $269 $268 $472 $473 reversed $107 $474 #
-385 edge $475 -1 -1 $-1 $476 0 $388 0.10000000000000001 $381 $477 forward @7 unknown T -0.79995351040776819 0.1939645496086301 0 -0.79995351040776819 0.1939645496086301 0.10000000000000001 #
-386 pcurve $-1 -1 -1 $-1 0 forward { exppc nubs 1 open 2 
	-0.10000000000000001 1 -0 1 
	-3.3188623767488292 0.10000000000000001 
	-3.3188623767488292 0 
	0 
	-1 
	spline forward { ref 3 } I I I I 
	} 0 0 #
-387 pcurve $-1 -1 -1 $-1 0 forward { exppc nubs 1 open 2 
	0 1 0.10000000000000001 1 
	-0 0 
	-0 0.10000000000000001 
	0 
	-1 
	spline forward { ref 3 } I I I I 
	} 0 0 #
-388 vertex $-1 -1 -1 $-1 $385 $478 #
-389 intcurve-curve $-1 -1 -1 $-1 forward { exactcur full nubs 3 open 7 
	0 3 0.75232853889465057 1 1.3778087346844723 1 2.4356981400645772 1 3.1581297320362984 1 
	3.2266316813465985 1 3.3188623767488292 3 
	-3.9500000000000002 0.93213981389999401 0.10000000000000001 
	-3.6992708125057021 0.93015576909769648 0.10000000000000001 
	-3.2400872953184603 0.92652220461451573 0.10000000000000001 
	-2.4275041747979702 0.95539026345169842 0.10000000000000001 
	-1.62963302714318 0.73458163853017999 0.10000000000000001 
	-1.181461215767498 0.18481217529553323 0.10000000000000001 
	-0.88438413240083769 0.19360640803099002 0.10000000000000001 
	-0.83069270594012012 0.19397884013694039 0.10000000000000001 
	-0.79995351040776819 0.1939645496086301 0.10000000000000001 
	0 
	null_surface 
	null_surface 
	nullbs 
	nullbs 
	-1 
	-1 
	I I 
	0 
	0 
	5 0.75232853889465057 1.3778087346844723 2.4356981400645772 3.1581297320362984 3.2266316813465985 
	
	-1 
	none F F 1 F 0 } I I #
-390 coedge $-1 -1 -1 $-1 $472 $278 $273 $391 reversed $373 $-1 #
-391 edge $-1 -1 -1 $-1 $392 0 $280 0.93213981389999401 $273 $479 forward @7 unknown T -3.9500000000000002 0 0 -3.9500000000000002 0.93213981389999401 0 #
-392 vertex $-1 -1 -1 $-1 $473 $480 #
-393 straight-curve $-1 -1 -1 $-1 -3.9500000000000002 0.93213981389999401 0 0 0 1 I I #
-394 point $-1 -1 -1 $-1 -3.9500000000000002 0.93213981389999401 0.10000000000000001 #
-395 coedge $-1 -1 -1 $-1 $278 $481 $277 $396 reversed $373 $-1 #
-396 edge $-1 -1 -1 $-1 $397 0 $402 0.1837887406349179 $277 $482 forward @7 unknown T -0.883795154094696 0 0 -0.7000064134597781 0 0 #
-397 vertex $-1 -1 -1 $-1 $396 $483 #
-398 straight-curve $-1 -1 -1 $-1 -0.883795154094696 0 0 -1 0 0 I I #
-399 point $-1 -1 -1 $-1 -3.9500000000000002 0 0 #
-400 coedge $-1 -1 -1 $-1 $484 $282 $481 $485 forward $377 $-1 #
-401 coedge $-1 -1 -1 $-1 $282 $484 $284 $405 forward $377 $-1 #
-402 vertex $-1 -1 -1 $-1 $396 $486 #
-403 straight-curve $-1 -1 -1 $-1 -0.7000064134597781 0 0 0 0 1 I I #
-404 coedge $-1 -1 -1 $-1 $382 $284 $379 $467 reversed $182 $-1 #
-405 edge $-1 -1 -1 $-1 $487 -0.15396460514412427 $285 -0 $401 $488 forward @7 unknown T -0.7000064134597781 0 0.10000000000000001 -0.7000064134597781 0.15396460514412427 0.10000000000000001 #
-406 point $-1 -1 -1 $-1 -0.7000064134597781 0 0.10000000000000001 #
-407 cface_ptr-ct-attrib $-1 -1 $-1 $-1 $287 1 1 1 1 1 1 1 1 1 1 1 1 0 1 0 1 1 1 $-1 $371 #
-408 cface_ptr-ct-attrib $-1 -1 $-1 $-1 $291 1 1 1 1 1 1 1 1 1 1 1 1 0 1 0 1 1 1 $-1 $186 #
-409 loop $-1 -1 -1 $-1 $-1 $421 $291 T -0.68553634166717492 0 0 -0.067038195133208967 0.56741106510162398 0 periphery $410 T #
-410 plane-surface $-1 -1 -1 $-1 -0.376287268400192 0.28370553255081199 0 0 0 1 1 0 0 forward_v I I I I #
-411 coedge $-1 -1 -1 $-1 $294 $307 $295 $413 forward $190 $-1 #
-412 coedge $-1 -1 -1 $-1 $296 $295 $489 $490 reversed $118 $-1 #
-413 edge $-1 -1 -1 $-1 $491 0 $414 0.10000000000000001 $411 $492 forward @7 unknown T -0.067038195133208994 0 0 -0.067038195133208994 0 0.10000000000000001 #
-414 vertex $-1 -1 -1 $-1 $413 $493 #
-415 straight-curve $-1 -1 -1 $-1 -0.067038195133208994 0.56741106510162398 0.10000000000000001 0 -1 0 I I #
-416 coedge $-1 -1 -1 $-1 $489 $303 $299 $417 forward $409 $-1 #
-417 edge $-1 -1 -1 $-1 $305 0 $418 0.61849814653396595 $299 $494 forward @7 unknown T -0.68553634166717492 0.56741106510162398 0 -0.067038195133208967 0.56741106510162398 0 #
-418 vertex $-1 -1 -1 $-1 $490 $495 #
-419 straight-curve $-1 -1 -1 $-1 -0.067038195133208994 0.56741106510162398 0 0 0 1 I I #
-420 point $-1 -1 -1 $-1 -0.067038195133208994 0.56741106510162398 0.10000000000000001 #
-421 coedge $-1 -1 -1 $-1 $303 $489 $307 $424 forward $409 $-1 #
-422 straight-curve $-1 -1 -1 $-1 -0.68553634166717492 0 0 0 1 0 I I #
-423 point $-1 -1 -1 $-1 -0.68553634166717492 0.56741106510162398 0 #
-424 edge $-1 -1 -1 $-1 $491 0 $308 0.61849814653396595 $307 $496 forward @7 unknown T -0.68553634166717492 0 0 -0.067038195133208994 0 0 #
-425 point $-1 -1 -1 $-1 -0.68553634166717492 0 0 #
-426 straight-curve $-1 -1 -1 $-1 -0.067038195133208994 0 0.10000000000000001 -1 0 0 I I #
-427 coedge $-1 -1 -1 $-1 $326 $321 $317 $428 reversed $314 $-1 #
-428 edge $-1 -1 -1 $-1 $429 0 $323 1.125 $317 $497 forward @7 unknown T -2.5 0 0 -2.5 1.125 0 #
-429 vertex $-1 -1 -1 $-1 $329 $498 #
-430 straight-curve $-1 -1 -1 $-1 -2.5 1.125 0 0 0 1 I I #
-431 point $-1 -1 -1 $-1 -2.5 1.125 0.10000000000000001 #
-432 straight-curve $-1 -1 -1 $-1 -2.5 0 0 1 0 0 I I #
-433 point $-1 -1 -1 $-1 -2.5 0 0 #
-434 straight-curve $-1 -1 -1 $-1 0.89351391792297397 1.125 0 -1 0 0 I I #
-435 cface_ptr-ct-attrib $-1 -1 $-1 $-1 $332 1 1 1 1 1 1 1 1 1 1 1 1 0 1 0 1 1 1 $-1 $228 #
-436 coedge $-1 -1 -1 $-1 $499 $500 $365 $459 forward $342 $-1 #
-437 coedge $-1 -1 -1 $-1 $501 $344 $500 $502 reversed $234 $-1 #
-438 coedge $-1 -1 -1 $-1 $344 $442 $444 $503 forward $234 $-1 #
-439 coedge $-1 -1 -1 $-1 $444 $365 $344 $440 reversed $163 $-1 #
-440 edge $-1 -1 -1 $-1 $504 0 $505 0.021187037157041955 $344 $506 forward @7 unknown T 0.75 0.12266331911087 0.10000000000000001 0.75 0.14385035626791196 0.10000000000000001 #
-441 coedge $-1 -1 -1 $-1 $346 $345 $507 $508 reversed $149 $-1 #
-442 coedge $-1 -1 -1 $-1 $438 $509 $345 $443 forward $234 $-1 #
-443 edge $-1 -1 -1 $-1 $510 0 $445 0.10000000000000001 $442 $511 forward @7 unknown T 0.75 0 0 0.75 0 0.10000000000000001 #
-444 coedge $-1 -1 -1 $-1 $347 $439 $438 $503 reversed $163 $-1 #
-445 vertex $-1 -1 -1 $-1 $443 $512 #
-446 straight-curve $-1 -1 -1 $-1 0.89351391792297397 0 0.10000000000000001 -1 0 0 I I #
-447 coedge $-1 -1 -1 $-1 $507 $353 $349 $448 forward $338 $-1 #
-448 edge $-1 -1 -1 $-1 $355 0 $449 0.375 $349 $513 forward @7 unknown T 0.89351391792297397 0 0 0.89351391792297397 0.375 0 #
-449 vertex $-1 -1 -1 $-1 $448 $514 #
-450 straight-curve $-1 -1 -1 $-1 0.89351391792297397 0 0 0 0 1 I I #
-451 point $-1 -1 -1 $-1 0.89351391792297397 0 0.10000000000000001 #
-452 straight-curve $-1 -1 -1 $-1 0.75 0.375 0 1 0 0 I I #
-453 point $-1 -1 -1 $-1 0.89351391792297397 0.375 0 #
-454 coedge $-1 -1 -1 $-1 $358 $515 $516 $517 reversed $338 $-1 #
-455 coedge $-1 -1 -1 $-1 $516 $366 $361 $456 reversed $334 $518 #
-456 edge $-1 -1 -1 $-1 $457 0 $368 0.10000000000000001 $361 $519 forward @7 unknown T -2.5 1 0 -2.5 1 0.10000000000000001 #
-457 vertex $-1 -1 -1 $-1 $362 $520 #
-458 straight-curve $-1 -1 -1 $-1 -2.5 1 0 0 1 0 I I #
-459 edge $-1 -1 -1 $-1 $505 9.3032737930056532e-007 $462 1.6071732686363274 $436 $521 forward @7 unknown T 0.64636310804525332 0.14385035626791196 0.10000000000000001 0.75 0.24385026323517417 0.10000000000000001 #
-460 coedge $-1 -1 -1 $-1 $366 $516 $499 $522 forward $334 $523 #
-461 pcurve $-1 -1 -1 $-1 0 forward { exppc nubs 1 open 2 
	-3.3200730369990099 1 -0 1 
	3.3200730369990099 0.10000000000000001 
	0 0.10000000000000001 
	0 
	-1 
	spline forward { ref 10 } I I I I 
	} 0 0 #
-462 vertex $-1 -1 -1 $-1 $522 $524 #
-463 intcurve-curve $-1 -1 -1 $-1 reversed { exactcur full nubs 3 open 6 
	0 3 0.75 1 1.375 1 2.4430004681646915 1 3.1718694550203539 1 
	3.3200730369990099 3 
	-2.5 1 0.10000000000000001 
	-2.2503125289624117 0.99651773328004367 0.10000000000000001 
	-1.7925521653934995 0.99013357762679033 0.10000000000000001 
	-0.97363762559635081 1.0411766529895563 0.10000000000000001 
	-0.19187749278150193 0.75671925873837276 0.10000000000000001 
	0.30547013179196775 0.24670800111906349 0.10000000000000001 
	0.59642378484609893 0.24196666484724619 0.10000000000000001 
	0.64636310804525332 0.24378410643611137 0.10000000000000001 
	0 
	null_surface 
	null_surface 
	nullbs 
	nullbs 
	-1 
	-1 
	I I 
	0 
	0 
	4 0.75 1.375 2.4430004681646915 3.1718694550203539 
	
	-1 
	none F F 1 F 0 } I I #
-464 point $-1 -1 -1 $-1 -2.5 1 0.10000000000000001 #
-465 coedge $-1 -1 -1 $-1 $525 $379 $484 $526 reversed $265 $-1 #
-466 coedge $-1 -1 -1 $-1 $379 $525 $380 $469 forward $265 $-1 #
-467 edge $-1 -1 -1 $-1 $470 -1.5707945580310887 $487 -1.3883873557756726e-006 $379 $527 forward @7 unknown T -0.74000634270922583 0.15396460514412427 0.10000000000000001 -0.70000641345975412 0.19396454960863005 0.10000000000000001 #
-468 coedge $-1 -1 -1 $-1 $381 $380 $528 $529 reversed $170 $-1 #
-469 edge $530 -1 -1 $-1 $531 0 $470 0.10000000000000001 $466 $532 forward @7 unknown T -0.74000634270922583 0.19396454960863005 0 -0.74000634270922583 0.19396454960863005 0.10000000000000001 #
-470 vertex $-1 -1 -1 $-1 $469 $533 #
-471 straight-curve $-1 -1 -1 $-1 -0.79995351040776819 0.1939645496086301 0.10000000000000001 1 -9.2600123345956847e-016 0 I I #
-472 coedge $-1 -1 -1 $-1 $528 $390 $384 $473 forward $373 $-1 #
-473 edge $-1 -1 -1 $-1 $392 0 $476 3.3188623767488292 $384 $534 forward @7 unknown T -3.9500000000000002 0.18481217529553323 0 -0.79995351040776819 0.95539026345169842 0 #
-474 pcurve $-1 -1 -1 $-1 0 forward { exppc nubs 1 open 2 
	-3.3188623767488292 1 -0 1 
	-3.3188623767488292 0 
	0 0 
	0 
	-1 
	spline forward { ref 3 } I I I I 
	} 0 0 #
-475 integer_attrib-name_attrib-gen-attrib $-1 -1 $-1 $-1 $385 2 3 2 1 1 1 1 1 1 1 1 1 1 1 0 1 1 1 @12 make_tangent 1 #
-476 vertex $-1 -1 -1 $-1 $529 $535 #
-477 straight-curve $-1 -1 -1 $-1 -0.79995351040776819 0.1939645496086301 0 0 0 1 I I #
-478 point $-1 -1 -1 $-1 -0.79995351040776819 0.1939645496086301 0.10000000000000001 #
-479 straight-curve $-1 -1 -1 $-1 -3.9500000000000002 0.93213981389999401 0 0 -1 0 I I #
-480 point $-1 -1 -1 $-1 -3.9500000000000002 0.93213981389999401 0 #
-481 coedge $-1 -1 -1 $-1 $395 $536 $400 $485 reversed $373 $-1 #
-482 straight-curve $-1 -1 -1 $-1 -0.883795154094696 0 0 1 0 0 I I #
-483 point $-1 -1 -1 $-1 -0.883795154094696 0 0 #
-484 coedge $-1 -1 -1 $-1 $401 $400 $465 $526 forward $377 $-1 #
-485 edge $-1 -1 -1 $-1 $402 0 $537 0.15396460514412427 $400 $538 forward @7 unknown T -0.7000064134597781 0 0 -0.7000064134597781 0.15396460514412427 0 #
-486 point $-1 -1 -1 $-1 -0.7000064134597781 0 0 #
-487 vertex $-1 -1 -1 $-1 $526 $539 #
-488 straight-curve $-1 -1 -1 $-1 -0.7000064134597781 0 0.10000000000000001 -0 -1 -0 I I #
-489 coedge $-1 -1 -1 $-1 $421 $416 $412 $490 forward $409 $-1 #
-490 edge $-1 -1 -1 $-1 $418 0 $491 0.56741106510162398 $412 $540 forward @7 unknown T -0.067038195133208994 0 0 -0.067038195133208994 0.56741106510162398 0 #
-491 vertex $-1 -1 -1 $-1 $424 $541 #
-492 straight-curve $-1 -1 -1 $-1 -0.067038195133208994 0 0 0 0 1 I I #
-493 point $-1 -1 -1 $-1 -0.067038195133208994 0 0.10000000000000001 #
-494 straight-curve $-1 -1 -1 $-1 -0.68553634166717492 0.56741106510162398 0 1 0 0 I I #
-495 point $-1 -1 -1 $-1 -0.067038195133208994 0.56741106510162398 0 #
-496 straight-curve $-1 -1 -1 $-1 -0.067038195133208994 0 0 -1 0 0 I I #
-497 straight-curve $-1 -1 -1 $-1 -2.5 1.125 0 0 -1 0 I I #
-498 point $-1 -1 -1 $-1 -2.5 1.125 0 #
-499 coedge $-1 -1 -1 $-1 $542 $436 $460 $522 reversed $342 $-1 #
-500 coedge $-1 -1 -1 $-1 $436 $542 $437 $502 forward $342 $-1 #
-501 coedge $-1 -1 -1 $-1 $509 $437 $543 $544 reversed $234 $-1 #
-502 edge $545 -1 -1 $-1 $546 0 $505 0.10000000000000001 $500 $547 forward @7 unknown T 0.75 0.14385035626791196 0 0.75 0.14385035626791196 0.10000000000000001 #
-503 edge $-1 -1 -1 $-1 $445 -0.12266331911087 $504 0 $438 $548 forward @7 unknown T 0.75 0 0.10000000000000001 0.75 0.12266331911087 0.10000000000000001 #
-504 vertex $-1 -1 -1 $-1 $503 $549 #
-505 vertex $-1 -1 -1 $-1 $502 $550 #
-506 straight-curve $-1 -1 -1 $-1 0.75 0.12266331911087 0.10000000000000001 0 1 0 I I #
-507 coedge $-1 -1 -1 $-1 $551 $447 $441 $508 forward $338 $-1 #
-508 edge $-1 -1 -1 $-1 $449 0 $510 0.14351391792297397 $441 $552 forward @7 unknown T 0.75 0 0 0.89351391792297397 0 0 #
-509 coedge $-1 -1 -1 $-1 $442 $501 $551 $553 forward $234 $-1 #
-510 vertex $-1 -1 -1 $-1 $508 $554 #
-511 straight-curve $-1 -1 -1 $-1 0.75 0 0 0 0 1 I I #
-512 point $-1 -1 -1 $-1 0.75 0 0.10000000000000001 #
-513 straight-curve $-1 -1 -1 $-1 0.89351391792297397 0.375 0 0 -1 0 I I #
-514 point $-1 -1 -1 $-1 0.89351391792297397 0 0 #
-515 coedge $-1 -1 -1 $-1 $454 $543 $542 $555 reversed $338 $-1 #
-516 coedge $-1 -1 -1 $-1 $460 $455 $454 $517 forward $334 $556 #
-517 edge $-1 -1 -1 $-1 $457 0 $557 3.3200730369990099 $516 $558 forward @7 unknown T -2.5 0.24196666484724619 0 0.64636310804525332 1.0411766529895563 0 #
-518 pcurve $-1 -1 -1 $-1 0 forward { exppc nubs 1 open 2 
	-0.10000000000000001 1 -0 1 
	0 0.10000000000000001 
	0 0 
	0 
	-1 
	spline forward { ref 10 } I I I I 
	} 0 0 #
-519 straight-curve $-1 -1 -1 $-1 -2.5 1 0 0 0 1 I I #
-520 point $-1 -1 -1 $-1 -2.5 1 0 #
-521 ellipse-curve $-1 -1 -1 $-1 0.6499999999999998 0.14385026323517403 0.10000000000000001 0 0 1 0.10000000000000016 0 0 1 I I #
-522 edge $559 -1 -1 $-1 $557 0 $462 0.10000000000000001 $460 $560 forward @7 tangent T 0.64636310804525332 0.24378410643611137 0 0.64636310804525332 0.24378410643611137 0.10000000000000001 #
-523 pcurve $-1 -1 -1 $-1 0 forward { exppc nubs 1 open 2 
	0 1 0.10000000000000001 1 
	3.3200730369990099 0 
	3.3200730369990099 0.10000000000000001 
	0 
	-1 
	spline forward { ref 10 } I I I I 
	} 0 0 #
-524 point $-1 -1 -1 $-1 0.64636310804525332 0.24378410643611137 0.10000000000000001 #
-525 coedge $-1 -1 -1 $-1 $466 $465 $536 $561 reversed $265 $-1 #
-526 edge $562 -1 -1 $-1 $537 0 $487 0.10000000000000001 $484 $563 forward @7 unknown T -0.7000064134597781 0.15396460514412427 0 -0.7000064134597781 0.15396460514412427 0.10000000000000001 #
-527 ellipse-curve $-1 -1 -1 $-1 -0.74000641345977813 0.15396454960863004 0.10000000000000001 -0 -0 -1 0.040000000000062576 0 0 1 I I #
-528 coedge $-1 -1 -1 $-1 $536 $472 $468 $529 forward $373 $-1 #
-529 edge $-1 -1 -1 $-1 $476 0 $531 0.059947167698542358 $468 $564 forward @7 unknown T -0.79995351040776819 0.19396454960863005 0 -0.74000634270922583 0.1939645496086301 0 #
-530 integer_attrib-name_attrib-gen-attrib $-1 -1 $-1 $-1 $469 2 3 2 1 1 1 1 1 1 1 1 1 1 1 0 1 1 1 @12 make_tangent 1 #
-531 vertex $-1 -1 -1 $-1 $561 $565 #
-532 straight-curve $-1 -1 -1 $-1 -0.74000634270922583 0.19396454960863005 0 0 0 1 I I #
-533 point $-1 -1 -1 $-1 -0.74000634270922583 0.19396454960863005 0.10000000000000001 #
-534 intcurve-curve $-1 -1 -1 $-1 forward { exactcur full nubs 3 open 7 
	0 3 0.75232853889465057 1 1.3778087346844723 1 2.4356981400645772 1 3.1581297320362984 1 
	3.2266316813465985 1 3.3188623767488292 3 
	-3.9500000000000002 0.93213981389999401 0 
	-3.6992708125057021 0.93015576909769648 0 
	-3.2400872953184603 0.92652220461451573 0 
	-2.4275041747979702 0.95539026345169842 0 
	-1.62963302714318 0.73458163853017999 0 
	-1.181461215767498 0.18481217529553323 0 
	-0.88438413240083769 0.19360640803099002 0 
	-0.83069270594012012 0.19397884013694039 0 
	-0.79995351040776819 0.1939645496086301 0 
	0 
	null_surface 
	null_surface 
	nullbs 
	nullbs 
	-1 
	-1 
	I I 
	0 
	0 
	5 0.75232853889465057 1.3778087346844723 2.4356981400645772 3.1581297320362984 3.2266316813465985 
	
	-1 
	none F F 1 F 0 } I I #
-535 point $-1 -1 -1 $-1 -0.79995351040776819 0.1939645496086301 0 #
-536 coedge $-1 -1 -1 $-1 $481 $528 $525 $561 forward $373 $-1 #
-537 vertex $-1 -1 -1 $-1 $485 $566 #
-538 straight-curve $-1 -1 -1 $-1 -0.7000064134597781 0 0 0 1 0 I I #
-539 point $-1 -1 -1 $-1 -0.7000064134597781 0.15396460514412427 0.10000000000000001 #
-540 straight-curve $-1 -1 -1 $-1 -0.067038195133208994 0.56741106510162398 0 0 -1 0 I I #
-541 point $-1 -1 -1 $-1 -0.067038195133208994 0 0 #
-542 coedge $-1 -1 -1 $-1 $500 $499 $515 $555 forward $342 $-1 #
-543 coedge $-1 -1 -1 $-1 $515 $551 $501 $544 forward $338 $-1 #
-544 edge $-1 -1 -1 $-1 $567 0 $546 0.021187037157041955 $501 $568 forward @7 unknown T 0.75 0.12266331911087 0 0.75 0.14385035626791196 0 #
-545 integer_attrib-name_attrib-gen-attrib $-1 -1 $-1 $-1 $502 2 3 2 1 1 1 1 1 1 1 1 1 1 1 0 1 1 1 @12 make_tangent 1 #
-546 vertex $-1 -1 -1 $-1 $544 $569 #
-547 straight-curve $-1 -1 -1 $-1 0.75 0.14385035626791196 0 0 0 1 I I #
-548 straight-curve $-1 -1 -1 $-1 0.75 0.12266331911087 0.10000000000000001 0 1 0 I I #
-549 point $-1 -1 -1 $-1 0.75 0.12266331911087 0.10000000000000001 #
-550 point $-1 -1 -1 $-1 0.75 0.14385035626791196 0.10000000000000001 #
-551 coedge $-1 -1 -1 $-1 $543 $507 $509 $553 reversed $338 $-1 #
-552 straight-curve $-1 -1 -1 $-1 0.89351391792297397 0 0 -1 0 0 I I #
-553 edge $-1 -1 -1 $-1 $567 0 $510 0.12266331911087 $509 $570 forward @7 unknown T 0.75 0 0 0.75 0.12266331911087 0 #
-554 point $-1 -1 -1 $-1 0.75 0 0 #
-555 edge $-1 -1 -1 $-1 $557 -1.6071732686363274 $546 -9.3032737930056532e-007 $542 $571 forward @7 unknown T 0.64636310804525332 0.14385035626791196 0 0.75 0.24385026323517417 0 #
-556 pcurve $-1 -1 -1 $-1 0 forward { exppc nubs 1 open 2 
	0 1 3.3200730369990099 1 
	0 0 
	3.3200730369990099 0 
	0 
	-1 
	spline forward { ref 10 } I I I I 
	} 0 0 #
-557 vertex $-1 -1 -1 $-1 $555 $572 #
-558 intcurve-curve $-1 -1 -1 $-1 forward { exactcur full nubs 3 open 6 
	0 3 0.75 1 1.375 1 2.4430004681646915 1 3.1718694550203539 1 
	3.3200730369990099 3 
	-2.5 1 0 
	-2.2503125289624117 0.99651773328004367 0 
	-1.7925521653934995 0.99013357762679033 0 
	-0.97363762559635081 1.0411766529895563 0 
	-0.19187749278150193 0.75671925873837276 0 
	0.30547013179196775 0.24670800111906349 0 
	0.59642378484609893 0.24196666484724619 0 
	0.64636310804525332 0.24378410643611137 0 
	0 
	null_surface 
	null_surface 
	nullbs 
	nullbs 
	-1 
	-1 
	I I 
	0 
	0 
	4 0.75 1.375 2.4430004681646915 3.1718694550203539 
	
	-1 
	none F F 1 F 0 } I I #
-559 integer_attrib-name_attrib-gen-attrib $-1 -1 $-1 $-1 $522 2 3 2 1 1 1 1 1 1 1 1 1 1 1 0 1 1 1 @12 make_tangent 1 #
-560 straight-curve $-1 -1 -1 $-1 0.64636310804525332 0.24378410643611137 0 0 0 1 I I #
-561 edge $-1 -1 -1 $-1 $531 -1.5707945580310887 $537 -1.3883873557756726e-006 $525 $573 forward @7 unknown T -0.74000634270922583 0.15396460514412427 0 -0.70000641345975412 0.19396454960863005 0 #
-562 integer_attrib-name_attrib-gen-attrib $-1 -1 $-1 $-1 $526 2 3 2 1 1 1 1 1 1 1 1 1 1 1 0 1 1 1 @12 make_tangent 1 #
-563 straight-curve $-1 -1 -1 $-1 -0.7000064134597781 0.15396460514412427 0 0 0 1 I I #
-564 straight-curve $-1 -1 -1 $-1 -0.79995351040776819 0.1939645496086301 0 1 -9.2600123345956847e-016 0 I I #
-565 point $-1 -1 -1 $-1 -0.74000634270922583 0.19396454960863005 0 #
-566 point $-1 -1 -1 $-1 -0.7000064134597781 0.15396460514412427 0 #
-567 vertex $-1 -1 -1 $-1 $553 $574 #
-568 straight-curve $-1 -1 -1 $-1 0.75 0.12266331911087 0 0 1 0 I I #
-569 point $-1 -1 -1 $-1 0.75 0.14385035626791196 0 #
-570 straight-curve $-1 -1 -1 $-1 0.75 0.12266331911087 0 0 -1 0 I I #
-571 ellipse-curve $-1 -1 -1 $-1 0.6499999999999998 0.14385026323517403 0 -0 -0 -1 0.10000000000000016 0 0 1 I I #
-572 point $-1 -1 -1 $-1 0.64636310804525332 0.24378410643611137 0 #
-573 ellipse-curve $-1 -1 -1 $-1 -0.74000641345977813 0.15396454960863004 0 -0 -0 -1 0.040000000000062576 0 0 1 I I #
-574 point $-1 -1 -1 $-1 0.75 0.12266331911087 0 #
End-of-ACIS-data 
